<?xml version="1.0" encoding="UTF-8" standalone="no"?>
<svg xmlns="http://www.w3.org/2000/svg"
     viewBox="0 0 36 36"
     version="1.1">
    <rect style="fill:#ffcc4d;"
          width="36"
          height="36"
          x="0"
          y="0"/>
    <path style="fill:#ffffff"
          d="m 7.9950189,11.175 h -1.829 c -1.488,0 -2.108,-1.085 -2.108,-2.139 0,-1.085 0.775,-2.14 2.108,-2.14 h 4.4020001 c 1.334,0 2.078,0.961 2.078,2.201 V 26.74 c 0,1.551 -0.992,2.418 -2.326,2.418 -1.3330001,0 -2.3250001,-0.867 -2.3250001,-2.418 z"/>
    <path style="fill:#ffffff"
          d="m 15.318019,17.962 c 0,-5.054 1.954,-11.41 8.216,-11.41 6.264,0 8.217,6.356 8.217,11.41 0,5.054 -1.953,11.41 -8.217,11.41 -6.262,0 -8.216,-6.356 -8.216,-11.41 z m 11.596,0 c 0,-2.356 -0.217,-7.193 -3.379,-7.193 -3.162,0 -3.379,4.837 -3.379,7.193 0,2.201 0.217,7.193 3.379,7.193 3.162,0 3.379,-4.992 3.379,-7.193 z"/>
</svg>
