<?xml version="1.0" encoding="UTF-8"?>
<svg version="1.1" viewBox="0 0 36 36" xmlns="http://www.w3.org/2000/svg">
 <rect width="36" height="36" fill="#ffcc4d" style="paint-order:markers stroke fill"/>
 <path d="m8.2037 27.953c-1.1758 0-1.6941-.79244-1.1528-1.7608l9.9636-17.8c.54194-.96834 1.4286-.96834 1.9705 0l9.9636 17.801c.54257.96775.02362 1.7602-1.1522 1.7602z" fill="#ffcc4d" stroke-width=".61486"/>
 <path d="m9.4634 11.175h-1.829c-1.488 0-2.108-1.085-2.108-2.139 0-1.085.775-2.14 2.108-2.14h4.402c1.334 0 2.078.961 2.078 2.201v17.643c0 1.551-.992 2.418-2.326 2.418-1.333 0-2.325-.867-2.325-2.418z" fill="#fff"/>
 <path d="m22.51 11.158h-1.829c-1.488 0-2.108-1.085-2.108-2.139 0-1.085.775-2.14 2.108-2.14h4.402c1.334 0 2.078.961 2.078 2.201v17.643c0 1.551-.992 2.418-2.326 2.418-1.333 0-2.325-.867-2.325-2.418z" fill="#fff"/>
</svg>
