<?xml version="1.0" encoding="UTF-8"?>
<svg version="1.1" viewBox="0 0 36 36" xmlns="http://www.w3.org/2000/svg">
 <rect width="36" height="36" fill="#ffcc4d" style="paint-order:markers stroke fill"/>
 <path d="m8.2037 27.953c-1.1758 0-1.6941-.79244-1.1528-1.7608l9.9636-17.8c.54194-.96834 1.4286-.96834 1.9705 0l9.9636 17.801c.54257.96775.02362 1.7602-1.1522 1.7602z" fill="#ffcc4d" stroke-width=".61486"/>
 <path d="m7.995 11.175h-1.829c-1.488 0-2.108-1.085-2.108-2.139 0-1.085.775-2.14 2.108-2.14h4.402c1.334 0 2.078.961 2.078 2.201v17.643c0 1.551-.992 2.418-2.326 2.418-1.333 0-2.325-.867-2.325-2.418z" fill="#fff"/>
 <path d="m29.565 25.246c1.365 0 2.42.62 2.42 2.046 0 1.427-1.055 2.047-2.233 2.047h-10.356c-1.364 0-2.418-.62-2.418-2.047 0-.65.403-1.209.713-1.581 2.573-3.069 5.364-5.86 7.721-9.271.558-.806 1.085-1.768 1.085-2.884 0-1.271-.961-2.387-2.233-2.387-3.566 0-1.86 5.023-4.837 5.023-1.488 0-2.264-1.054-2.264-2.264 0-3.906 3.473-7.038 7.287-7.038 3.815 0 6.883 2.512 6.883 6.449 0 4.309-4.805 8.589-7.441 11.906h5.673z" fill="#fff"/>
</svg>
