<?xml version="1.0" encoding="UTF-8"?>
<svg version="1.1" viewBox="0 0 36 36" xmlns="http://www.w3.org/2000/svg">
 <rect width="36" height="36" fill="#ffcc4d" style="paint-order:markers stroke fill"/>
 <path d="m8.2037 27.953c-1.1758 0-1.6941-.79244-1.1528-1.7608l9.9636-17.8c.54194-.96834 1.4286-.96834 1.9705 0l9.9636 17.801c.54257.96775.02362 1.7602-1.1522 1.7602z" fill="#ffcc4d" stroke-width=".61486"/>
 <path d="m7.995 11.175h-1.829c-1.488 0-2.108-1.085-2.108-2.139 0-1.085.775-2.14 2.108-2.14h4.402c1.334 0 2.078.961 2.078 2.201v17.643c0 1.551-.992 2.418-2.326 2.418-1.333 0-2.325-.867-2.325-2.418z" fill="#fff"/>
 <path d="m30.605 12.54c0 1.954-.836 3.659-2.542 4.744 2.232 1.024 3.782 3.101 3.782 5.55 0 3.721-3.41 6.853-7.813 6.853-4.589 0-7.441-3.38-7.441-5.829 0-1.209 1.272-2.077 2.388-2.077 2.108 0 1.612 3.628 5.116 3.628 1.612 0 2.915-1.24 2.915-2.884 0-4.341-5.272-1.147-5.272-4.806 0-3.255 4.402-1.054 4.402-4.496 0-1.179-.836-2.078-2.232-2.078-2.945 0-2.542 3.038-4.651 3.038-1.271 0-2.015-1.147-2.015-2.294 0-2.418 3.317-5.023 6.759-5.023 4.466 0 6.604 3.256 6.604 5.674z" fill="#fff"/>
</svg>
