<?xml version="1.0" encoding="UTF-8" standalone="no"?>
<svg xmlns="http://www.w3.org/2000/svg"
     viewBox="0 0 36 36"
     version="1.1">
    <rect style="fill:#ffcc4d;"
          width="36"
          height="36"
          x="0"
          y="0"/>
    <path style="fill:#ffffff"
          d="m 23.086,24.907 c 1.365,0 2.42,0.62 2.42,2.046 0,1.427 -1.055,2.047 -2.233,2.047 H 12.917 c -1.364,0 -2.418,-0.62 -2.418,-2.047 0,-0.65 0.403,-1.209 0.713,-1.581 2.573,-3.069 5.364,-5.86 7.721,-9.271 0.558,-0.806 1.085,-1.768 1.085,-2.884 0,-1.271 -0.961,-2.387 -2.233,-2.387 -3.566,0 -1.86,5.023 -4.837,5.023 -1.488,0 -2.264,-1.054 -2.264,-2.264 0,-3.906 3.473,-7.038 7.287,-7.038 3.815,0 6.883,2.512 6.883,6.449 0,4.309 -4.805,8.589 -7.441,11.906 h 5.673 z"/>
</svg>
