<?xml version="1.0" encoding="UTF-8" standalone="no"?>
<svg
   xmlns:dc="http://purl.org/dc/elements/1.1/"
   xmlns:cc="http://creativecommons.org/ns#"
   xmlns:rdf="http://www.w3.org/1999/02/22-rdf-syntax-ns#"
   xmlns:svg="http://www.w3.org/2000/svg"
   xmlns="http://www.w3.org/2000/svg"
   xmlns:sodipodi="http://sodipodi.sourceforge.net/DTD/sodipodi-0.dtd"
   xmlns:inkscape="http://www.inkscape.org/namespaces/inkscape"
   viewBox="0 0 36 36"
   version="1.1"
   id="svg827"
   sodipodi:docname="2.svg"
   inkscape:version="0.92.4 (5da689c313, 2019-01-14)"
   inkscape:export-filename="D:\Pictures\depths emoji\4.png"
   inkscape:export-xdpi="300"
   inkscape:export-ydpi="300">
  <metadata
     id="metadata833">
    <rdf:RDF>
      <cc:Work
         rdf:about="">
        <dc:format>image/svg+xml</dc:format>
        <dc:type
           rdf:resource="http://purl.org/dc/dcmitype/StillImage" />
        <dc:title></dc:title>
      </cc:Work>
    </rdf:RDF>
  </metadata>
  <defs
     id="defs831" />
  <sodipodi:namedview
     pagecolor="#ffffff"
     bordercolor="#666666"
     borderopacity="1"
     objecttolerance="10"
     gridtolerance="10"
     guidetolerance="10"
     inkscape:pageopacity="0"
     inkscape:pageshadow="2"
     inkscape:window-width="1920"
     inkscape:window-height="1017"
     id="namedview829"
     showgrid="false"
     inkscape:zoom="23.555556"
     inkscape:cx="9.8556252"
     inkscape:cy="17.185267"
     inkscape:window-x="-8"
     inkscape:window-y="-8"
     inkscape:window-maximized="1"
     inkscape:current-layer="layer3" />
  <path
     d="M36 32c0 2.209-1.791 4-4 4H4c-2.209 0-4-1.791-4-4V4c0-2.209 1.791-4 4-4h28c2.209 0 4 1.791 4 4v28z"
     id="path825"
     fill="#55ACEE" />
  <g
     inkscape:groupmode="layer"
     id="layer1"
     inkscape:label="Layer 1"
     style="display:inline">
    <rect
       style="opacity:1;fill:#ffcc4d;fill-opacity:1;fill-rule:nonzero;stroke:none;stroke-width:3.34944224;stroke-linecap:round;stroke-linejoin:round;stroke-miterlimit:4;stroke-dasharray:none;stroke-opacity:1;paint-order:markers stroke fill"
       id="rect836"
       width="36"
       height="36"
       x="0"
       y="0" />
  </g>
  <g
     inkscape:groupmode="layer"
     id="layer2"
     inkscape:label="Layer 2" />
  <g
     inkscape:groupmode="layer"
     id="layer3"
     inkscape:label="Layer 3">
    <path
       inkscape:connector-curvature="0"
       style="display:inline;fill:#ffcc4d;stroke-width:0.61485773"
       d="m 8.2036501,27.952596 c -1.1757902,0 -1.6941084,-0.792438 -1.1528104,-1.760775 L 17.014416,8.3915806 c 0.541936,-0.9683368 1.428566,-0.9683368 1.970501,0 l 9.963578,17.8008314 c 0.542574,0.967746 0.02362,1.760184 -1.152173,1.760184 z"
       id="path8183" />
    <path
       inkscape:connector-curvature="0"
       style="fill:#ffffff"
       d="m 23.086,24.907 c 1.365,0 2.42,0.62 2.42,2.046 0,1.427 -1.055,2.047 -2.233,2.047 H 12.917 c -1.364,0 -2.418,-0.62 -2.418,-2.047 0,-0.65 0.403,-1.209 0.713,-1.581 2.573,-3.069 5.364,-5.86 7.721,-9.271 0.558,-0.806 1.085,-1.768 1.085,-2.884 0,-1.271 -0.961,-2.387 -2.233,-2.387 -3.566,0 -1.86,5.023 -4.837,5.023 -1.488,0 -2.264,-1.054 -2.264,-2.264 0,-3.906 3.473,-7.038 7.287,-7.038 3.815,0 6.883,2.512 6.883,6.449 0,4.309 -4.805,8.589 -7.441,11.906 h 5.673 z"
       id="path5961" />
  </g>
</svg>
