<?xml version="1.0" encoding="UTF-8" standalone="no"?>
<svg xmlns="http://www.w3.org/2000/svg"
     viewBox="0 0 36 36"
     version="1.1">
    <rect style="fill:#ffcc4d;"
          width="36"
          height="36"
          x="0"
          y="0"/>
    <path style="fill:#ffffff"
          d="m 10.769,24.132 c -1.519,0 -2.17,-1.022 -2.17,-1.829 0,-0.682 0.248,-1.055 0.434,-1.364 L 15.979,8.35 c 0.682,-1.24 1.55,-1.798 3.162,-1.798 1.799,0 3.566,1.147 3.566,3.969 v 9.519 h 0.527 c 1.209,0 2.17,0.807 2.17,2.047 0,1.24 -0.961,2.046 -2.17,2.046 h -0.527 v 2.636 c 0,1.644 -0.651,2.418 -2.232,2.418 -1.581,0 -2.233,-0.774 -2.233,-2.418 V 24.133 H 10.769 Z M 18.242,11.389 H 18.18 l -4.186,8.65 h 4.248 z"/>
</svg>
