<?xml version="1.0" encoding="UTF-8" standalone="no"?>
<svg
   xmlns:dc="http://purl.org/dc/elements/1.1/"
   xmlns:cc="http://creativecommons.org/ns#"
   xmlns:rdf="http://www.w3.org/1999/02/22-rdf-syntax-ns#"
   xmlns:svg="http://www.w3.org/2000/svg"
   xmlns="http://www.w3.org/2000/svg"
   xmlns:sodipodi="http://sodipodi.sourceforge.net/DTD/sodipodi-0.dtd"
   xmlns:inkscape="http://www.inkscape.org/namespaces/inkscape"
   viewBox="0 0 36 36"
   version="1.1"
   id="svg827"
   sodipodi:docname="5.svg"
   inkscape:version="0.92.4 (5da689c313, 2019-01-14)"
   inkscape:export-filename="D:\Pictures\depths emoji\4.png"
   inkscape:export-xdpi="300"
   inkscape:export-ydpi="300">
  <metadata
     id="metadata833">
    <rdf:RDF>
      <cc:Work
         rdf:about="">
        <dc:format>image/svg+xml</dc:format>
        <dc:type
           rdf:resource="http://purl.org/dc/dcmitype/StillImage" />
        <dc:title></dc:title>
      </cc:Work>
    </rdf:RDF>
  </metadata>
  <defs
     id="defs831" />
  <sodipodi:namedview
     pagecolor="#ffffff"
     bordercolor="#666666"
     borderopacity="1"
     objecttolerance="10"
     gridtolerance="10"
     guidetolerance="10"
     inkscape:pageopacity="0"
     inkscape:pageshadow="2"
     inkscape:window-width="1920"
     inkscape:window-height="1017"
     id="namedview829"
     showgrid="false"
     inkscape:zoom="23.555556"
     inkscape:cx="9.8556252"
     inkscape:cy="17.185267"
     inkscape:window-x="-8"
     inkscape:window-y="-8"
     inkscape:window-maximized="1"
     inkscape:current-layer="layer3" />
  <path
     d="M36 32c0 2.209-1.791 4-4 4H4c-2.209 0-4-1.791-4-4V4c0-2.209 1.791-4 4-4h28c2.209 0 4 1.791 4 4v28z"
     id="path825"
     fill="#55ACEE" />
  <g
     inkscape:groupmode="layer"
     id="layer1"
     inkscape:label="Layer 1"
     style="display:inline">
    <rect
       style="opacity:1;fill:#ffcc4d;fill-opacity:1;fill-rule:nonzero;stroke:none;stroke-width:3.34944224;stroke-linecap:round;stroke-linejoin:round;stroke-miterlimit:4;stroke-dasharray:none;stroke-opacity:1;paint-order:markers stroke fill"
       id="rect836"
       width="36"
       height="36"
       x="0"
       y="0" />
  </g>
  <g
     inkscape:groupmode="layer"
     id="layer2"
     inkscape:label="Layer 2" />
  <g
     inkscape:groupmode="layer"
     id="layer3"
     inkscape:label="Layer 3">
    <path
       inkscape:connector-curvature="0"
       style="display:inline;fill:#ffcc4d;stroke-width:0.61485773"
       d="m 8.2036501,27.952596 c -1.1757902,0 -1.6941084,-0.792438 -1.1528104,-1.760775 L 17.014416,8.3915806 c 0.541936,-0.9683368 1.428566,-0.9683368 1.970501,0 l 9.963578,17.8008314 c 0.542574,0.967746 0.02362,1.760184 -1.152173,1.760184 z"
       id="path8183" />
    <path
       inkscape:connector-curvature="0"
       style="fill:#ffffff"
       d="m 16.389,14.489 c 0.744,-0.155 1.551,-0.31 2.326,-0.31 3.752,0 6.418,2.977 6.418,6.604 0,5.178 -2.851,8.589 -8.216,8.589 -2.201,0 -6.821,-1.427 -6.821,-4.155 0,-1.147 0.961,-2.107 2.108,-2.107 1.24,0 2.729,1.984 4.806,1.984 2.17,0 3.288,-2.109 3.288,-4.062 0,-1.86 -1.055,-3.131 -2.977,-3.131 -1.799,0 -2.078,1.023 -3.659,1.023 -1.209,0 -1.829,-0.93 -1.829,-1.457 0,-0.403 0.062,-0.713 0.093,-1.054 L 12.7,9.869 c 0.341,-2.418 0.93,-2.945 2.418,-2.945 h 7.472 c 1.428,0 2.264,0.837 2.264,1.953 0,2.14 -1.611,2.326 -2.17,2.326 h -5.829 z"
       id="path4599" />
  </g>
</svg>
