<?xml version="1.0" encoding="UTF-8" standalone="no"?>
<svg xmlns="http://www.w3.org/2000/svg"
     viewBox="0 0 36 36"
     version="1.1">
    <rect style="fill:#ffcc4d;"
          width="36"
          height="36"
          x="0"
          y="0"/>
    <path style="fill:#ffffff"
          d="m 16.389,14.489 c 0.744,-0.155 1.551,-0.31 2.326,-0.31 3.752,0 6.418,2.977 6.418,6.604 0,5.178 -2.851,8.589 -8.216,8.589 -2.201,0 -6.821,-1.427 -6.821,-4.155 0,-1.147 0.961,-2.107 2.108,-2.107 1.24,0 2.729,1.984 4.806,1.984 2.17,0 3.288,-2.109 3.288,-4.062 0,-1.86 -1.055,-3.131 -2.977,-3.131 -1.799,0 -2.078,1.023 -3.659,1.023 -1.209,0 -1.829,-0.93 -1.829,-1.457 0,-0.403 0.062,-0.713 0.093,-1.054 L 12.7,9.869 c 0.341,-2.418 0.93,-2.945 2.418,-2.945 h 7.472 c 1.428,0 2.264,0.837 2.264,1.953 0,2.14 -1.611,2.326 -2.17,2.326 h -5.829 z"/>
</svg>
