<?xml version="1.0" encoding="UTF-8" standalone="no"?>
<svg xmlns="http://www.w3.org/2000/svg"
     viewBox="0 0 36 36"
     version="1.1">
    <rect style="fill:#ffcc4d;"
          width="36"
          height="36"
          x="0"
          y="0"/>
    <path style="fill:#ffffff"
          d="m 10.219,21.683 c 0,-4.682 4.744,-11.255 7.875,-14.17 0.248,-0.248 0.62,-0.496 0.992,-0.744 0.341,-0.217 0.683,-0.217 0.931,-0.217 0.867,0 2.201,1.147 2.201,2.264 0,0.434 -0.279,0.806 -0.651,1.271 -1.24,1.519 -3.255,3.503 -4.279,4.961 l 0.062,0.062 c 0.558,-0.248 1.271,-0.372 1.954,-0.372 3.721,0 6.479,3.287 6.479,6.945 0,4.03 -3.194,7.69 -7.783,7.69 -4.773,-0.001 -7.781,-3.566 -7.781,-7.69 z m 4.837,0 c 0,1.736 1.085,3.225 2.945,3.225 1.768,0 2.946,-1.427 2.946,-3.225 0,-1.643 -0.992,-3.225 -2.946,-3.225 -1.767,0 -2.945,1.396 -2.945,3.225 z"/>
</svg>
