<?xml version="1.0" encoding="UTF-8" standalone="no"?>
<svg
   xmlns:dc="http://purl.org/dc/elements/1.1/"
   xmlns:cc="http://creativecommons.org/ns#"
   xmlns:rdf="http://www.w3.org/1999/02/22-rdf-syntax-ns#"
   xmlns:svg="http://www.w3.org/2000/svg"
   xmlns="http://www.w3.org/2000/svg"
   xmlns:sodipodi="http://sodipodi.sourceforge.net/DTD/sodipodi-0.dtd"
   xmlns:inkscape="http://www.inkscape.org/namespaces/inkscape"
   viewBox="0 0 36 36"
   version="1.1"
   id="svg827"
   sodipodi:docname="6.svg"
   inkscape:version="0.92.4 (5da689c313, 2019-01-14)"
   inkscape:export-filename="D:\Pictures\depths emoji\4.png"
   inkscape:export-xdpi="300"
   inkscape:export-ydpi="300">
  <metadata
     id="metadata833">
    <rdf:RDF>
      <cc:Work
         rdf:about="">
        <dc:format>image/svg+xml</dc:format>
        <dc:type
           rdf:resource="http://purl.org/dc/dcmitype/StillImage" />
        <dc:title></dc:title>
      </cc:Work>
    </rdf:RDF>
  </metadata>
  <defs
     id="defs831" />
  <sodipodi:namedview
     pagecolor="#ffffff"
     bordercolor="#666666"
     borderopacity="1"
     objecttolerance="10"
     gridtolerance="10"
     guidetolerance="10"
     inkscape:pageopacity="0"
     inkscape:pageshadow="2"
     inkscape:window-width="1920"
     inkscape:window-height="1017"
     id="namedview829"
     showgrid="false"
     inkscape:zoom="23.555556"
     inkscape:cx="9.8556252"
     inkscape:cy="17.185267"
     inkscape:window-x="-8"
     inkscape:window-y="-8"
     inkscape:window-maximized="1"
     inkscape:current-layer="layer3" />
  <path
     d="M36 32c0 2.209-1.791 4-4 4H4c-2.209 0-4-1.791-4-4V4c0-2.209 1.791-4 4-4h28c2.209 0 4 1.791 4 4v28z"
     id="path825"
     fill="#55ACEE" />
  <g
     inkscape:groupmode="layer"
     id="layer1"
     inkscape:label="Layer 1"
     style="display:inline">
    <rect
       style="opacity:1;fill:#626973;fill-opacity:1;fill-rule:nonzero;stroke:none;stroke-width:3.34944224;stroke-linecap:round;stroke-linejoin:round;stroke-miterlimit:4;stroke-dasharray:none;stroke-opacity:1;paint-order:markers stroke fill"
       id="rect836"
       width="36"
       height="36"
       x="0"
       y="0" />
  </g>
  <g
     inkscape:groupmode="layer"
     id="layer2"
     inkscape:label="Layer 2" />
  <g
     inkscape:groupmode="layer"
     id="layer3"
     inkscape:label="Layer 3">
    <path
       inkscape:connector-curvature="0"
       style="fill:#ffffff"
       d="m 10.219,21.683 c 0,-4.682 4.744,-11.255 7.875,-14.17 0.248,-0.248 0.62,-0.496 0.992,-0.744 0.341,-0.217 0.683,-0.217 0.931,-0.217 0.867,0 2.201,1.147 2.201,2.264 0,0.434 -0.279,0.806 -0.651,1.271 -1.24,1.519 -3.255,3.503 -4.279,4.961 l 0.062,0.062 c 0.558,-0.248 1.271,-0.372 1.954,-0.372 3.721,0 6.479,3.287 6.479,6.945 0,4.03 -3.194,7.69 -7.783,7.69 -4.773,-0.001 -7.781,-3.566 -7.781,-7.69 z m 4.837,0 c 0,1.736 1.085,3.225 2.945,3.225 1.768,0 2.946,-1.427 2.946,-3.225 0,-1.643 -0.992,-3.225 -2.946,-3.225 -1.767,0 -2.945,1.396 -2.945,3.225 z"
       id="path6555" />
  </g>
</svg>
