<?xml version="1.0" encoding="UTF-8" standalone="no"?>
<svg
   xmlns:dc="http://purl.org/dc/elements/1.1/"
   xmlns:cc="http://creativecommons.org/ns#"
   xmlns:rdf="http://www.w3.org/1999/02/22-rdf-syntax-ns#"
   xmlns:svg="http://www.w3.org/2000/svg"
   xmlns="http://www.w3.org/2000/svg"
   xmlns:sodipodi="http://sodipodi.sourceforge.net/DTD/sodipodi-0.dtd"
   xmlns:inkscape="http://www.inkscape.org/namespaces/inkscape"
   viewBox="0 0 36 36"
   version="1.1"
   id="svg827"
   sodipodi:docname="8.svg"
   inkscape:version="0.92.4 (5da689c313, 2019-01-14)"
   inkscape:export-filename="D:\Pictures\depths emoji\4.png"
   inkscape:export-xdpi="300"
   inkscape:export-ydpi="300">
  <metadata
     id="metadata833">
    <rdf:RDF>
      <cc:Work
         rdf:about="">
        <dc:format>image/svg+xml</dc:format>
        <dc:type
           rdf:resource="http://purl.org/dc/dcmitype/StillImage" />
        <dc:title></dc:title>
      </cc:Work>
    </rdf:RDF>
  </metadata>
  <defs
     id="defs831" />
  <sodipodi:namedview
     pagecolor="#ffffff"
     bordercolor="#666666"
     borderopacity="1"
     objecttolerance="10"
     gridtolerance="10"
     guidetolerance="10"
     inkscape:pageopacity="0"
     inkscape:pageshadow="2"
     inkscape:window-width="1920"
     inkscape:window-height="1017"
     id="namedview829"
     showgrid="false"
     inkscape:zoom="23.555556"
     inkscape:cx="9.8556252"
     inkscape:cy="17.185267"
     inkscape:window-x="-8"
     inkscape:window-y="-8"
     inkscape:window-maximized="1"
     inkscape:current-layer="layer3" />
  <path
     d="M36 32c0 2.209-1.791 4-4 4H4c-2.209 0-4-1.791-4-4V4c0-2.209 1.791-4 4-4h28c2.209 0 4 1.791 4 4v28z"
     id="path825"
     fill="#55ACEE" />
  <g
     inkscape:groupmode="layer"
     id="layer1"
     inkscape:label="Layer 1"
     style="display:inline">
    <rect
       style="opacity:1;fill:#ffcc4d;fill-opacity:1;fill-rule:nonzero;stroke:none;stroke-width:3.34944224;stroke-linecap:round;stroke-linejoin:round;stroke-miterlimit:4;stroke-dasharray:none;stroke-opacity:1;paint-order:markers stroke fill"
       id="rect836"
       width="36"
       height="36"
       x="0"
       y="0" />
  </g>
  <g
     inkscape:groupmode="layer"
     id="layer2"
     inkscape:label="Layer 2" />
  <g
     inkscape:groupmode="layer"
     id="layer3"
     inkscape:label="Layer 3">
    <path
       inkscape:connector-curvature="0"
       style="display:inline;fill:#ffcc4d;stroke-width:0.61485773"
       d="m 8.2036501,27.952596 c -1.1757902,0 -1.6941084,-0.792438 -1.1528104,-1.760775 L 17.014416,8.3915806 c 0.541936,-0.9683368 1.428566,-0.9683368 1.970501,0 l 9.963578,17.8008314 c 0.542574,0.967746 0.02362,1.760184 -1.152173,1.760184 z"
       id="path8183" />
    <path
       inkscape:connector-curvature="0"
       style="fill:#ffffff"
       d="m 10.343,22.303 c 0,-2.48 1.364,-4.309 3.317,-5.364 -1.457,-1.054 -2.356,-2.48 -2.356,-4.434 0,-3.628 3.008,-5.953 6.697,-5.953 3.596,0 6.729,2.294 6.729,5.953 0,1.736 -0.869,3.473 -2.389,4.434 2.109,1.055 3.318,2.977 3.318,5.364 0,4.31 -3.504,7.069 -7.659,7.069 -4.277,0 -7.657,-2.915 -7.657,-7.069 z m 4.837,-0.311 c 0,1.582 0.93,3.102 2.821,3.102 1.768,0 2.822,-1.52 2.822,-3.102 0,-1.953 -1.116,-3.1 -2.822,-3.1 -1.797,0 -2.821,1.364 -2.821,3.1 z m 0.589,-8.991 c 0,1.395 0.807,2.356 2.232,2.356 1.426,0 2.264,-0.961 2.264,-2.356 0,-1.333 -0.807,-2.357 -2.264,-2.357 -1.457,0 -2.232,1.024 -2.232,2.357 z"
       id="path2101" />
  </g>
</svg>
