<?xml version="1.0" encoding="UTF-8" standalone="no"?>
<svg xmlns="http://www.w3.org/2000/svg"
     viewBox="0 0 36 36"
     version="1.1">
    <rect style="fill:#ffcc4d;"
          width="36"
          height="36"
          x="0"
          y="0"/>
    <path style="fill:#ffffff"
          d="m 25.784,14.241 c 0,4.682 -4.743,11.255 -7.875,14.17 -0.248,0.248 -0.62,0.496 -0.992,0.744 -0.341,0.217 -0.682,0.217 -0.93,0.217 -0.868,0 -2.202,-1.148 -2.202,-2.264 0,-0.434 0.279,-0.806 0.651,-1.271 1.24,-1.52 3.256,-3.504 4.279,-4.961 l -0.062,-0.062 c -0.558,0.248 -1.271,0.372 -1.953,0.372 -3.721,0 -6.48,-3.287 -6.48,-6.945 0,-4.031 3.193,-7.689 7.782,-7.689 4.775,0 7.782,3.565 7.782,7.689 z m -4.837,0 c 0,-1.736 -1.086,-3.225 -2.946,-3.225 -1.767,0 -2.945,1.426 -2.945,3.225 0,1.644 0.992,3.225 2.945,3.225 1.769,0 2.946,-1.396 2.946,-3.225 z"/>
</svg>
