<?xml version="1.0" encoding="UTF-8"?>
<svg version="1.1" viewBox="0 0 36 36" xmlns="http://www.w3.org/2000/svg">
 <rect width="36" height="36" fill="#bc5fd3" style="paint-order:markers stroke fill"/>
 <path d="m30 28c0 1.104-.896 2-2 2h-20c-1.104 0-2-.896-2-2v-20c0-1.104.896-2 2-2h20c1.104 0 2 .896 2 2z" fill="#892ca0"/>
 <path d="m8.917 10.117c-.155-.403-.217-.713-.217-1.147 0-1.302 1.147-2.232 2.387-2.232 1.055 0 1.706.682 2.108 1.519l4.806 12.898 4.807-12.898c.402-.837 1.053-1.519 2.107-1.519 1.24 0 2.387.93 2.387 2.232 0 .434-.06.744-.217 1.147l-6.789 17.271c-.404.992-.931 1.798-2.295 1.798s-1.891-.806-2.295-1.798z" fill="#fff"/>
</svg>
