<?xml version="1.0" encoding="UTF-8"?>
<svg version="1.1" viewBox="0 0 36 36" xmlns="http://www.w3.org/2000/svg">
 <rect width="36" height="36" fill="#55acee" style="paint-order:markers stroke fill"/>
 <g fill="#ffcc4d">
  <path d="m18.61 19.237c-.419 0-.809.265-.949.684l-3 9c-.175.524.108 1.09.632 1.265.525.177 1.091-.109 1.265-.632l3-9c.174-.524-.108-1.09-.632-1.265-.105-.036-.212-.052-.316-.052z"/>
  <path d="m18.61 19.237c-.087 0-.175.012-.263.036-.533.145-.847.694-.702 1.227l3.226 11.856c.146.533.696.845 1.228.702.533-.145.848-.694.702-1.228l-3.227-11.856c-.12-.445-.524-.737-.964-.737z"/>
  <path d="m18.61 19.237c-.218 0-.437.071-.621.216l-13.25 10.5c-.433.343-.506.972-.163 1.405s.973.504 1.405.163l13.25-10.5c.433-.343.506-.972.163-1.405-.198-.249-.49-.379-.784-.379z"/>
  <path d="m18.611 19.237c-.039 0-.077.002-.116.006l-12.332 1.417c-.548.063-.942.559-.879 1.108s.565.944 1.108.879l12.333-1.417c.548-.063.942-.559.879-1.108-.059-.509-.492-.885-.993-.885z"/>
  <path d="m4.1102 12.32c-.373 0-.731.21-.903.569-.238.499-.027 1.096.472 1.333l14.5 6.917c.498.239 1.095.027 1.333-.472s.027-1.095-.472-1.333l-14.5-6.917c-.138-.066-.285-.097-.43-.097z"/>
  <path d="m7.9432 4.0703c-.199 0-.399.059-.574.182-.452.318-.561.941-.243 1.393l10.666 15.167c.317.452.941.561 1.393.243.452-.317.561-.941.243-1.393l-10.667-15.167c-.194-.277-.504-.425-.818-.425z"/>
  <path d="m18.61 19.237c-.276 0-.551.114-.749.337-.366.413-.328 1.045.085 1.412l11.708 10.375c.413.365 1.045.328 1.411-.085s.328-1.045-.085-1.412l-11.707-10.376c-.19-.168-.427-.251-.663-.251z"/>
  <path d="m18.61 19.237c-.419 0-.81.266-.949.686-.174.524.111 1.09.635 1.264l12.333 4.083c.528.175 1.091-.111 1.264-.635.174-.524-.11-1.09-.635-1.264l-12.333-4.083c-.105-.035-.211-.051-.315-.051z"/>
  <path d="m32.445 17.737c-.036 0-.072.002-.108.006l-13.835 1.5c-.549.059-.946.553-.886 1.102s.559.944 1.102.886l13.833-1.5c.55-.059.946-.553.887-1.102-.056-.512-.489-.892-.993-.892z"/>
  <path d="m18.611 21.237c-.309 0-.613-.143-.809-.411-.325-.446-.227-1.071.219-1.396l8.917-6.5c.447-.325 1.072-.227 1.396.219.326.446.228 1.072-.219 1.397l-8.917 6.5c-.177.129-.383.191-.587.191z"/>
  <path d="m18.609 21.237c-.176 0-.354-.046-.515-.144-.473-.285-.625-.899-.34-1.373l7.834-13c.284-.474.898-.626 1.373-.34.473.285.625.899.34 1.373l-7.834 13c-.188.312-.519.484-.858.484z"/>
 </g>
 <g fill="#f5f8fa">
  <circle cx="18.61" cy="20.237" r="3"/>
  <path d="m7.5732 30.931c0-1.303-1.057-2.359-2.359-2.359-1.303 0-2.359 1.056-2.359 2.359s1.056 2.359 2.359 2.359c1.302.001 2.359-1.056 2.359-2.359z"/>
  <circle cx="30.318" cy="30.612" r="2.958"/>
  <path d="m23.443 32.093c0-.887-.719-1.606-1.606-1.606s-1.606.719-1.606 1.606.719 1.606 1.606 1.606 1.606-.719 1.606-1.606z"/>
  <circle cx="3.6872" cy="13.154" r="1.75"/>
  <path d="m10.36 4.4043c0-1.565-1.269-2.833-2.833-2.833-1.565 0-2.833 1.268-2.833 2.833-.001 1.564 1.268 2.833 2.833 2.833 1.564 0 2.833-1.269 2.833-2.833zm24.584 14.25c0-1.22-.989-2.208-2.209-2.208-1.219 0-2.208.989-2.208 2.208s.989 2.208 2.208 2.208c1.22 0 2.209-.989 2.209-2.208z"/>
  <circle cx="26.527" cy="7.2373" r="1.75"/>
 </g>
</svg>
