<?xml version="1.0" encoding="UTF-8"?>
<svg version="1.1" viewBox="0 0 36 36" xmlns="http://www.w3.org/2000/svg">
 <rect x="3.662e-8" width="36" height="36" fill="#55acee" style="paint-order:markers stroke fill"/>
 <path d="m3.6934 7.7689 4.0755-2.25 3.9906 2.1651-3.3113 2.0802z" fill="#1464a0"/>
 <path d="m34.229 17.622c-.13979-.53175-.6673-.84328-1.1748-.6958-7.56 2.172-14.767 9.6728-18.401 14.365 3.085-9.7068 10.599-14.123 19.826-19.994.45154-.28731.59455-.90135.31995-1.3738-.2746-.47245-.86145-.62208-1.313-.33477-9.196 5.8514-16.812 10.143-20.206 19.74.66322-5.6946 1.5496-11.623 5.2921-16.699.3232-.43737.24521-1.0656-.1721-1.4025-.41779-.33914-1.0184-.25656-1.3404.18007-1.9062 2.5843-3.2771 5.8557-4.2723 9.2126-.39455-2.0397-.9706-3.9549-2.3904-4.3169l-.04271-.01089c-.84499-.21544-1.6756.05241-2.5457 1.1274-.34113.42148-.25227.88466.15056 1.2416.40352.35814 1.0064.30394 1.3473-.11657.42953-.53069.66173-.62381.66299-.64614.54622.341 1.0094 3.0322 1.1835 4.0503.08176.47681.15676.90661.22914 1.2421.07045.32262.28648.56503.5563.68632-1.0975 4.8222-.81848 7.3017-.96618 9.9l-.0063.11161c-.02757.4901.28664.91914.72771 1.0316.05478.01397.11163.02331.16983.02683.11849.0065.23056-.01429.33722-.04988.11704.11836.25251.21671.42244.26004.16993.04333.33346.02121.49012-.02634.11448.11668.24716.21432.41431.25694l.02414.0062c.49214.12548 1.003-.20538 1.1503-.71539.28757-.99402 3.6766-5.2526 8.2029-9.2747.09997.01005.19968.01694.30177-.0075.25418-.06076.54161-.14187.84826-.22939.98426-.28118 2.6281-.75031 3.1149-.25565.11844.12077.47137.67084.01362 2.6363-.12513.53728.1888 1.0774.70229 1.2083.5135.13092 1.0297-.19754 1.1548-.73482.50594-2.1724.33059-3.6581-.53769-4.5423-.62276-.63327-1.4529-.80685-2.3192-.7704 2.7684-2.0876 4.5204-3.0373 7.3764-3.8582.51029-.14676.80921-.69531.66872-1.2283z" fill="#4a8926" stroke-width=".97762"/>
 <path d="m13.712 10.231c-5.2217-9.2123-10.486-2.5472-10.486-2.5472s5.1792 6.1557 10.698-2.9717" fill="none" stroke="#1464a0" stroke-linecap="round" stroke-linejoin="round" stroke-width="2.1354"/>
 <path d="m29.733 8.5453c-.25614-.482-.83914-.654-1.2988-.385-6.8536 3.983-15.242 17.207-17.712 22.666.80091-10.195 5.3225-20.044 12.959-28.034.37369-.391.37369-1.023 0-1.414-.37369-.391-.97772-.391-1.3514 0-7.6105 7.963-12.259 17.717-13.385 27.881-.64417-5.697-.93471-13.91 1.5531-19.768.21504-.505-.0029-1.096-.48456-1.32-.48265-.226-1.0475.003-1.2616.507-1.2673 2.983-1.8589 6.501-2.0663 10.009-.84487-1.884-1.8379-3.602-3.2992-3.602h-.043964c-.86972 0-1.6162.466-2.2183 1.726-.23607.494-.04492.922.42721 1.169.47309.248 1.0465.046 1.2826-.447.29723-.622.50176-.77.49794-.792.60785.196 1.6668 2.696 2.0663 3.642.18732.443.35745.842.50367 1.15.14145.296.40619.478.69578.529.024849 4.957.6671 9.53 1.1115 12.091l.019115.11c.084105.483.48647.822.94044.822.056388 0 .11373-.005.17108-.016.1166-.023.22078-.071.31635-.132.14049.086.29437.148.46927.148.1749 0 .32877-.062.47022-.147.13763.085.28863.147.46066.147h.02485c.50654 0 .92802-.448.95574-.98.05448-1.037 2.3836-6.014 5.8711-11.043.0994-.015.19784-.033.2915-.082.2332-.122.49412-.272.77224-.433.89266-.517 2.3836-1.38 2.9685-1.02.1424.088.60976.535.60976 2.558 0 .553.42721 1 .95574 1 .52852 0 .95574-.447.95574-1 0-2.236-.50654-3.636-1.5502-4.28-.74834-.461-1.5942-.424-2.4276-.174 2.2173-2.714 6.7887-8.2216 9.3778-9.7266.46258-.269.62887-.876.37178-1.359z" fill="#77b255" stroke-width=".97762"/>
 <path d="m21.647 30.481 4.0755-2.25 3.9906 2.1651-3.3113 2.0802z" fill="#1464a0"/>
 <path d="m31.666 32.943c-5.2217-9.2123-10.486-2.5472-10.486-2.5472s5.1792 6.1557 10.698-2.9717" fill="none" stroke="#1464a0" stroke-linecap="round" stroke-linejoin="round" stroke-width="2.1354"/>
</svg>
