<?xml version="1.0" encoding="UTF-8" standalone="no"?>
<svg xmlns="http://www.w3.org/2000/svg"
     viewBox="0 0 36 36"
     version="1.1">
    <rect style="fill:#55acee;"
          width="36"
          height="36"
          x="0"
          y="0"/>
    <path style="fill:#3b88c3"
          d="m 28.283566,9.1038412 c -1.979,0 -3.25,-0.749 -4,-1.437 -0.75,0.688 -2.021,1.437 -3.999999,1.437 -3.577,0 -4.842001,-2.448 -4.895001,-2.553 -0.247,-0.494 -0.047,-1.095 0.447001,-1.342 0.491,-0.244 1.086,-0.049 1.336,0.437 0.046,0.082 0.834,1.458 3.112,1.458 2.297999,0 3.079999,-1.4 3.111999,-1.46 0.177,-0.328 0.503,-0.524 0.899,-0.533 0.373,0.006 0.716,0.212 0.883,0.546 0.026,0.047 0.807,1.447 3.106,1.447 2.299,0 3.08,-1.4 3.112,-1.46 0.26,-0.481 0.859,-0.673 1.345,-0.42 0.485,0.251 0.682,0.839 0.438,1.327 -0.052,0.105 -1.318,2.553 -4.895,2.553 z"/>
    <path style="fill:#3b88c3"
          d="m 23.453377,28.136861 c -1.979,0 -3.25,-0.748999 -4,-1.436999 -0.75,0.688 -2.021,1.436999 -4,1.436999 -1.979,0 -3.249999,-0.748999 -3.999999,-1.436999 -0.75,0.688 -2.0209995,1.436999 -4,1.436999 -3.577001,0 -4.842001,-2.447999 -4.895001,-2.552999 -0.247,-0.494001 -0.047,-1.095001 0.447,-1.342001 0.491,-0.243 1.086,-0.049 1.336,0.437 0.046,0.082 0.8340005,1.458001 3.112001,1.458001 2.298001,0 3.08,-1.400001 3.112,-1.460001 0.177,-0.328 0.523,-0.534 0.899,-0.533 0.373,0.006 0.716,0.212 0.883,0.546 0.026,0.047 0.807999,1.447001 3.105999,1.447001 2.299,0 3.08,-1.400001 3.112,-1.460001 0.177,-0.328 0.53,-0.541 0.899,-0.533 0.373,0.006 0.716,0.212 0.883,0.546 0.026,0.047 0.807,1.447001 3.106,1.447001 2.299,0 3.08,-1.400001 3.112,-1.460001 0.26,-0.481 0.86,-0.673 1.345,-0.42 0.485,0.251 0.682,0.839 0.438,1.327001 -0.052,0.105 -1.318,2.552999 -4.895,2.552999 z"/>
</svg>
