<?xml version="1.0" encoding="UTF-8"?>
<svg version="1.1" viewBox="0 0 36 36" xmlns="http://www.w3.org/2000/svg">
 <rect width="36" height="36" fill="#55acee" style="paint-order:markers stroke fill"/>
 <path d="m28.284 9.1038c-1.979 0-3.25-.749-4-1.437-.75.688-2.021 1.437-4 1.437-3.577 0-4.842-2.448-4.895-2.553-.247-.494-.047-1.095.447-1.342.491-.244 1.086-.049 1.336.437.046.082.834 1.458 3.112 1.458 2.298 0 3.08-1.4 3.112-1.46.177-.328.503-.524.899-.533.373.006.716.212.883.546.026.047.807 1.447 3.106 1.447s3.08-1.4 3.112-1.46c.26-.481.859-.673 1.345-.42.485.251.682.839.438 1.327-.052.105-1.318 2.553-4.895 2.553z" fill="#3b88c3"/>
 <path d="m23.453 28.137c-1.979 0-3.25-.749-4-1.437-.75.688-2.021 1.437-4 1.437s-3.25-.749-4-1.437c-.75.688-2.021 1.437-4 1.437-3.577 0-4.842-2.448-4.895-2.553-.247-.494-.047-1.095.447-1.342.491-.243 1.086-.049 1.336.437.046.082.834 1.458 3.112 1.458 2.298 0 3.08-1.4 3.112-1.46.177-.328.523-.534.899-.533.373.006.716.212.883.546.026.047.808 1.447 3.106 1.447 2.299 0 3.08-1.4 3.112-1.46.177-.328.53-.541.899-.533.373.006.716.212.883.546.026.047.807 1.447 3.106 1.447s3.08-1.4 3.112-1.46c.26-.481.86-.673 1.345-.42.485.251.682.839.438 1.327-.052.105-1.318 2.553-4.895 2.553z" fill="#3b88c3"/>
</svg>
