<?xml version="1.0" encoding="UTF-8" standalone="no"?>
<svg xmlns="http://www.w3.org/2000/svg"
     viewBox="0 0 36 36"
     version="1.1">
    <rect style="fill:#ffcc4d;"
          id="rect836"
          width="36"
          height="36"
          x="0"
          y="0"/>
    <path style="fill:#231f20;"
          d="m 30,28 c 0,1.104 -0.896,2 -2,2 H 8 C 6.896,30 6,29.104 6,28 V 8 C 6,6.896 6.896,6 8,6 h 20 c 1.104,0 2,0.896 2,2 z"/>
    <path style="fill:#ffcc4d;"
          d="m 8.2036501,27.952596 c -1.1757902,0 -1.6941084,-0.792438 -1.1528104,-1.760775 L 17.014416,8.3915806 c 0.541936,-0.9683368 1.428566,-0.9683368 1.970501,0 l 9.963578,17.8008314 c 0.542574,0.967746 0.02362,1.760184 -1.152173,1.760184 z"/>
    <path style="fill:#231f20;"
          d="m 16.457161,24.371227 c 0,-0.789477 0.69258,-1.432074 1.544102,-1.432074 0.850884,0 1.543463,0.642597 1.543463,1.432074 0,0.790069 -0.693218,1.432666 -1.543463,1.432666 -0.851522,0 -1.544102,-0.642597 -1.544102,-1.432666 z m 0.118731,-10.834131 c 0,-0.771116 0.613427,-1.248474 1.424735,-1.248474 0.792159,0 1.425375,0.495718 1.425375,1.248474 v 7.070346 c 0,0.752758 -0.633216,1.248475 -1.425375,1.248475 -0.811308,0 -1.424735,-0.47795 -1.424735,-1.248475 z"/>
</svg>
