<?xml version="1.0" encoding="UTF-8"?>
<svg version="1.1" viewBox="0 0 36 36" xmlns="http://www.w3.org/2000/svg">
 <rect width="36" height="36" fill="#269" style="paint-order:markers stroke fill"/>
 <path d="m30 28c0 1.104-.896 2-2 2h-20c-1.104 0-2-.896-2-2v-20c0-1.104.896-2 2-2h20c1.104 0 2 .896 2 2z" fill="#003258"/>
 <path d="m11 9.496c0-1.504.896-2.496 2.496-2.496h5.665c4.703 0 8.191 2.944 8.191 7.52 0 4.67-3.617 7.48-8 7.48h-3.352v5.479c0 1.6-1.024 2.496-2.4 2.496s-2.6-.897-2.6-2.496zm5 8.504h3.062c2.018 0 3.297-1.465 3.297-3.385s-1.279-3.392-3.297-3.392h-3.062z" fill="#fff"/>
</svg>
