<?xml version="1.0" encoding="UTF-8" standalone="no"?>
<svg xmlns="http://www.w3.org/2000/svg"
     viewBox="0 0 36 36"
     version="1.1">
    <rect style="opacity:1;fill:#226699;fill-opacity:1;fill-rule:nonzero;stroke:none;stroke-width:3.34944224;stroke-linecap:round;stroke-linejoin:round;stroke-miterlimit:4;stroke-dasharray:none;stroke-opacity:1;paint-order:markers stroke fill"
          width="36"
          height="36"
          x="0"
          y="0"/>
    <path style="fill:#003258;fill-opacity:1"
          d="m 30,28 c 0,1.104 -0.896,2 -2,2 H 8 C 6.896,30 6,29.104 6,28 V 8 C 6,6.896 6.896,6 8,6 h 20 c 1.104,0 2,0.896 2,2 z"/>
    <path style="fill:#ffffff"
          d="M 11,9.496 C 11,7.992 11.896,7 13.496,7 h 5.665 c 4.703,0 8.191,2.944 8.191,7.52 0,4.67 -3.617,7.48 -8,7.48 H 16 v 5.479 c 0,1.6 -1.024,2.496 -2.4,2.496 -1.376,0 -2.6,-0.897 -2.6,-2.496 z M 16,18 h 3.062 c 2.018,0 3.297,-1.465 3.297,-3.385 0,-1.92 -1.279,-3.392 -3.297,-3.392 H 16 Z"/>
</svg>
