<?xml version="1.0" encoding="UTF-8"?>
<svg version="1.1" viewBox="0 0 36 36" xmlns="http://www.w3.org/2000/svg">
  <rect x="3.662e-8" width="36" height="36" fill="#26618d" style="paint-order:markers stroke fill"/>
  <g fill="#153c55">
   <path d="m23.816 23.774 1.0189 4.8821-.97642 5.6038-1.2311 1.4009 3.6085-1.6981 1.6981-2.9717-1.9528-5.3915z"/>
   <g stroke="#153c55" stroke-width="1px">
    <path d="m27.127 26.066 2.2075 4.5 2.8868 1.8255 1.9104 1.9953s.76415-4.1604.59434-5.7311-1.6557-3.5236-1.6557-3.5236z"/>
    <path d="m15.453 24.58-2.4198 6.283s-.25472 1.4858-.25472 1.9528c0 .46698-4.3302 2.4623-4.3302 2.4623l.63679-2.7594s-.97642-1.2311-1.0613-2.1651c-.084906-.93396 3.566-6.1132 3.566-6.1132z"/>
    <path d="m7.5991 22.925-3.0991 6.4953.33962 2.0377s-2.6321-1.6132-2.6321-2.5896-.12736-2.0802-.12736-2.0802l2.8868-3.1415z"/>
   </g>
  <path d="m5.3233 2.8884s3.5527 2.0919 3.6946 2.5534c.14191.46148 1.0825 3.2604 1.0825 3.2604s1.1966 1.7693 1.4343 1.859c.23766.08971-.89635-1.8509-.89635-1.8509l.22956-3.0684-1.0037-2.5989-3.6071-.59991-3.677-1.8067 1.411 1.4567z" fill="#104160"/>
  <path d="m5.3071 14.5s-.81722-5.4287-.63819-5.8771c.17903-.44839.65075-3.6001.65075-3.6001s-2.1566-2.3408-.67221-.30972l-.84534 1.7489-1.085 2.4151-.84902 2.6535 1.9654 3.0274 3.0033 3.4167-.99135-2.0196z" fill="#104160"/>
  <path d="m26.618 4.2877s1.9528 2.1651 2.8019 2.6745c.84906.50943 3.3538 1.1462 3.3538 1.1462l1.6132 3.3538.42453 2.7594.38208-4.7547-1.0189-3.6934-3.4811-1.6132-4.1604-2.6321s-4.7547-.84906-4.5-.7217 3.6085 1.5708 3.6085 1.5708z" fill="#153c55"/>
 </g>
 <ellipse cx="18" cy="23.516" rx="18" ry="5.36" fill="#55acee"/>
 <path d="m34.109 21.762c0 1.7529-2.6058 2.8061-15.095 2.8061-11.387 0-14.188-1.0532-14.188-2.8061s5.9235-3.1738 14.188-3.1738 15.095 1.421 15.095 3.1738z" fill="#88c9f9" stroke-width="1.0633"/>
 <path d="m16.344 31.5s14.434-.25472 18-3.7783c0 0-1.4009 2.6745-4.4151 3.5236-3.0142.84906-13.585.25472-13.585.25472z" fill="#55acee"/>
 <path d="m2.0041 27.293s7.4305 3.5806 19.434 2.5049c0 0-9.034 1.6191-12.791.80734-3.0608-.6613-6.6422-3.3122-6.6422-3.3122z" fill="#55acee"/>
 <path d="m19.817 23.291-4.6652-14.955s-1.1018.59061-2.0206 1.2705c-.24287.17928-1.534 2.1653-1.794 2.3593-1.3672 1.0206-2.7562 2.2049-2.9424 2.4579-.35616.48429-1.7295 7.7272-1.7295 7.7272z" fill="#292f33"/>
 <path d="m26.209 10.632-5.6737-7.1494-.92182-2.9399-4.1691 5.0322-.75344.90959c-.31503.60691-1.285 4.1475-1.285 4.1475l-.96993 3.6865-4.2661 7.8029.35327.74714 20.85.24711z" fill="#4b545d"/>
 <path d="m14.533 23.231 1.7217.04245 1.8066-10.313.95751-1.3947 2.7763-4.0621.07294-1.1401-2.5505 3.4568-2.0322 2.7536-1.853 5.7137-.47488 1.4637-1.3897 2.4323-1.3744 1.09zm9.7816-11.719-1.5247 4.5767-.84888 2.8863 1.7419 4.2197 2.6048.16368s-2.7948-3.8983-2.7948-4.3833c0-.09313.48497-2.0854.48497-2.0854l.84888-3.5165.21804-1.189z" fill="#292f33"/>
 <path d="m32.646 22.491s.636 1.2612.27131-1.2518c0 0-.11329-3.0152-.98622-4.0101-.81396-.92744-2.0361-1.4552-2.1982-1.5227l-.95363-2.7342-1.4433-4.0862-1.8793-1.6492-1.4308-1.2619-.39185-.48196-4.0209-4.95 1.7761 5.6648.40659 1.2961 2.5187 4.0086.51212 1.8603 1.1158 1.7703.60058 2.0962.82948 2.9003-1.0849 3.2192z" fill="#292f33"/>
 <path d="m6.1132 20.528s-.63679 2.1651 13.203 2.25c13.84.08491 14.105-1.0295 14.062-1.8361-.04245-.8066.32901 1.7936.32901 1.7936l-6.2406 1.0613-18.297-.084906-3.5236-.97642z" fill="#88c9f9"/>
</svg>
