<?xml version="1.0" encoding="UTF-8" standalone="no"?>
<svg
   xmlns:dc="http://purl.org/dc/elements/1.1/"
   xmlns:cc="http://creativecommons.org/ns#"
   xmlns:rdf="http://www.w3.org/1999/02/22-rdf-syntax-ns#"
   xmlns:svg="http://www.w3.org/2000/svg"
   xmlns="http://www.w3.org/2000/svg"
   xmlns:sodipodi="http://sodipodi.sourceforge.net/DTD/sodipodi-0.dtd"
   xmlns:inkscape="http://www.inkscape.org/namespaces/inkscape"
   viewBox="0 0 36 36"
   version="1.1"
   id="svg827"
   sodipodi:docname="squid.svg"
   inkscape:version="0.92.4 (5da689c313, 2019-01-14)"
   inkscape:export-filename="D:\Pictures\depths emoji\squid.png"
   inkscape:export-xdpi="300"
   inkscape:export-ydpi="300">
  <metadata
     id="metadata833">
    <rdf:RDF>
      <cc:Work
         rdf:about="">
        <dc:format>image/svg+xml</dc:format>
        <dc:type
           rdf:resource="http://purl.org/dc/dcmitype/StillImage" />
        <dc:title></dc:title>
      </cc:Work>
    </rdf:RDF>
  </metadata>
  <defs
     id="defs831" />
  <sodipodi:namedview
     pagecolor="#ffffff"
     bordercolor="#666666"
     borderopacity="1"
     objecttolerance="10"
     gridtolerance="10"
     guidetolerance="10"
     inkscape:pageopacity="0"
     inkscape:pageshadow="2"
     inkscape:window-width="1494"
     inkscape:window-height="1008"
     id="namedview829"
     showgrid="false"
     inkscape:zoom="23.555556"
     inkscape:cx="16.652813"
     inkscape:cy="18.154034"
     inkscape:window-x="156"
     inkscape:window-y="0"
     inkscape:window-maximized="0"
     inkscape:current-layer="svg827" />
  <path
     d="M36 32c0 2.209-1.791 4-4 4H4c-2.209 0-4-1.791-4-4V4c0-2.209 1.791-4 4-4h28c2.209 0 4 1.791 4 4v28z"
     id="path825"
     fill="#55ACEE" />
  <g
     inkscape:groupmode="layer"
     id="layer1"
     inkscape:label="Layer 1" />
  <rect
     style="opacity:1;fill:#55acee;fill-opacity:1;fill-rule:nonzero;stroke:none;stroke-width:3.34944224;stroke-linecap:round;stroke-linejoin:round;stroke-miterlimit:4;stroke-dasharray:none;stroke-opacity:1;paint-order:markers stroke fill"
     id="rect836"
     width="36"
     height="36"
     x="0"
     y="0" />
  <path
     inkscape:connector-curvature="0"
     style="fill:#ea596e;stroke-width:0.79238063"
     d="m 28.221089,11.945067 c 0,-4.754284 -10.300948,-8.7161873 -10.300948,-8.7161873 V 23.038396 c 0,0 10.300948,-6.339044 10.300948,-11.093329 z"
     id="path9443" />
  <path
     inkscape:connector-curvature="0"
     style="fill:#ea596e;stroke-width:0.79238063"
     d="m 7.6207774,11.945067 c 0,-4.754284 10.3009476,-8.7161873 10.3009476,-8.7161873 V 23.038396 c 7.93e-4,0 -10.3009476,-6.339044 -10.3009476,-11.093329 z"
     id="path9445" />
  <path
     inkscape:connector-curvature="0"
     style="fill:#f4abba;stroke-width:0.79238063"
     d="m 25.051566,11.945067 c 0,3.037196 -7.131425,9.508568 -7.131425,9.508568 0,0 -7.131426,-6.471372 -7.131426,-9.508568 0,-3.9619029 7.131426,-8.7161873 7.131426,-8.7161873 0,0 7.131425,4.7542844 7.131425,8.7161873 z"
     id="path9447" />
  <path
     inkscape:connector-curvature="0"
     style="fill:#be1931;stroke-width:0.79238063"
     d="m 13.958237,15.801584 c 2.022155,3.370788 -1.431039,7.207494 -3.452402,6.533178 -2.022155,-0.674317 -2.696471,1.34784 -0.6743156,2.022155 2.0221556,0.674316 6.3802476,-0.313783 8.7629366,-2.695679 0.674316,-0.674315 1.34784,-0.674315 1.34784,-0.674315 z"
     id="path9449" />
  <path
     inkscape:connector-curvature="0"
     style="fill:#be1931;stroke-width:0.79238063"
     d="m 21.882043,15.801584 c -2.022155,3.370788 1.43104,7.207494 3.452403,6.533178 2.022947,-0.674317 2.696471,1.34784 0.674315,2.022155 -2.022155,0.674316 -6.380248,-0.313783 -8.762937,-2.695679 -0.674316,-0.674315 -1.348631,-0.674315 -1.348631,-0.674315 z"
     id="path9451" />
  <path
     inkscape:connector-curvature="0"
     style="fill:#ea596e;stroke-width:0.79238063"
     d="m 10.788715,16.699352 c 2.022155,3.370786 -1.0847689,9.006197 -3.1069243,8.331881 -2.0221554,-0.674316 -2.6964712,1.348632 -0.6743159,2.022948 2.0221553,0.674315 6.3802482,-0.313783 8.7629362,-2.696471 0.674317,-0.674317 1.34784,-0.674317 1.34784,-0.674317 z m 14.254135,0 c -2.022948,3.370786 1.083977,9.006197 3.106924,8.331881 2.022156,-0.674316 2.695679,1.348632 0.674316,2.022948 -2.022948,0.674315 -6.380248,-0.313783 -8.762937,-2.696471 -0.674316,-0.675108 -1.348632,-0.675108 -1.348632,-0.675108 z"
     id="path9453" />
  <path
     inkscape:connector-curvature="0"
     style="fill:#f4abba;stroke-width:0.79238063"
     d="m 28.15849,28.862394 c -1.839908,0.613302 -5.484066,-4.239237 -4.691686,-8.99352 1.584762,-3.961903 -3.169522,-5.928592 -3.169522,-7.910335 0,-4.8398625 -1.609325,-7.7138274 -2.401706,-7.7138274 -0.79238,0 -2.352577,2.8739649 -2.352577,7.7138274 0,1.981743 -4.754284,3.948432 -3.169523,7.910335 0.792381,4.754283 -2.8517774,9.606822 -4.6916853,8.99352 -2.0221554,-0.674317 -2.6964712,2.022155 -0.6743159,2.695679 2.0221553,0.674315 5.6013392,-0.42234 8.0886212,-2.695679 1.476205,-1.349425 2.824045,-1.349425 2.824045,-1.349425 0,0 1.347839,0 2.823252,1.348632 2.487283,2.27334 6.066465,3.369995 8.088621,2.695679 2.022155,-0.673524 1.348632,-3.369203 -0.673524,-2.694886 z"
     id="path9455" />
  <circle
     style="fill:#292f33;stroke-width:0.79238063"
     cx="15.146809"
     cy="21.849825"
     id="circle9457"
     r="1.9809514" />
  <circle
     style="fill:#292f33;stroke-width:0.79238063"
     cx="20.693472"
     cy="21.849825"
     id="circle9459"
     r="1.9809514" />
</svg>
