<?xml version="1.0" encoding="UTF-8" standalone="no"?>
<svg
   xmlns:dc="http://purl.org/dc/elements/1.1/"
   xmlns:cc="http://creativecommons.org/ns#"
   xmlns:rdf="http://www.w3.org/1999/02/22-rdf-syntax-ns#"
   xmlns:svg="http://www.w3.org/2000/svg"
   xmlns="http://www.w3.org/2000/svg"
   xmlns:sodipodi="http://sodipodi.sourceforge.net/DTD/sodipodi-0.dtd"
   xmlns:inkscape="http://www.inkscape.org/namespaces/inkscape"
   viewBox="0 0 36 36"
   version="1.1"
   id="svg827"
   sodipodi:docname="storm.svg"
   inkscape:version="0.92.4 (5da689c313, 2019-01-14)"
   inkscape:export-filename="D:\Pictures\depths emoji\storm.png"
   inkscape:export-xdpi="300"
   inkscape:export-ydpi="300">
  <metadata
     id="metadata833">
    <rdf:RDF>
      <cc:Work
         rdf:about="">
        <dc:format>image/svg+xml</dc:format>
        <dc:type
           rdf:resource="http://purl.org/dc/dcmitype/StillImage" />
        <dc:title></dc:title>
      </cc:Work>
    </rdf:RDF>
  </metadata>
  <defs
     id="defs831" />
  <sodipodi:namedview
     pagecolor="#ffffff"
     bordercolor="#666666"
     borderopacity="1"
     objecttolerance="10"
     gridtolerance="10"
     guidetolerance="10"
     inkscape:pageopacity="0"
     inkscape:pageshadow="2"
     inkscape:window-width="1473"
     inkscape:window-height="1044"
     id="namedview829"
     showgrid="false"
     inkscape:zoom="23.555556"
     inkscape:cx="18.917913"
     inkscape:cy="16.422885"
     inkscape:window-x="2172"
     inkscape:window-y="303"
     inkscape:window-maximized="0"
     inkscape:current-layer="svg827" />
  <path
     d="m 36,32 c 0,2.209 -1.791,4 -4,4 H 4 C 1.791,36 0,34.209 0,32 V 4 C 0,1.791 1.791,0 4,0 h 28 c 2.209,0 4,1.791 4,4 z"
     id="path825"
     inkscape:connector-curvature="0"
     style="display:inline;fill:#55acee" />
  <g
     inkscape:groupmode="layer"
     id="layer1"
     inkscape:label="Layer 1" />
  <rect
     style="opacity:1;fill:#3b88c3;fill-opacity:1;fill-rule:nonzero;stroke:none;stroke-width:3.34944224;stroke-linecap:round;stroke-linejoin:round;stroke-miterlimit:4;stroke-dasharray:none;stroke-opacity:1;paint-order:markers stroke fill"
     id="rect836"
     width="36"
     height="36"
     x="0"
     y="0" />
  <path
     style="display:inline;fill:#26618d;fill-opacity:1"
     d="m 24.080736,7.4906337 c -1.979,0 -3.25,-0.749 -4,-1.437 -0.75,0.688 -2.021,1.437 -3.999999,1.437 -3.577,0 -4.842001,-2.448 -4.895001,-2.553 -0.247,-0.494 -0.047,-1.095 0.447001,-1.342 0.491,-0.244 1.086,-0.049 1.336,0.437 0.046,0.082 0.834,1.458 3.112,1.458 2.297999,0 3.079999,-1.4 3.111999,-1.46 0.177,-0.328 0.503,-0.524 0.899,-0.533 0.373,0.006 0.716,0.212 0.883,0.546 0.026,0.047 0.807,1.447 3.106,1.447 2.299,0 3.08,-1.4 3.112,-1.46 0.26,-0.481 0.859,-0.673 1.345,-0.42 0.485,0.251 0.682,0.839 0.438,1.327 -0.052,0.105 -1.318,2.553 -4.895,2.553 z"
     id="path5164"
     inkscape:connector-curvature="0" />
  <path
     style="display:inline;fill:#26618d;fill-opacity:1"
     d="m 23.708095,19.518936 c -1.979,0 -3.25,-0.748999 -4,-1.436999 -0.75,0.688 -2.021,1.436999 -4,1.436999 -1.979,0 -3.249999,-0.748999 -3.999999,-1.436999 -0.75,0.688 -2.0210005,1.436999 -4.000001,1.436999 -3.577001,0 -4.842001,-2.447999 -4.895001,-2.552999 -0.247,-0.494001 -0.047,-1.095001 0.447,-1.342001 0.491,-0.243 1.086,-0.049 1.336,0.437 0.046,0.082 0.8340005,1.458001 3.112001,1.458001 2.298001,0 3.080001,-1.400001 3.112001,-1.460001 0.177,-0.328 0.523,-0.534 0.899,-0.533 0.373,0.006 0.716,0.212 0.883,0.546 0.026,0.047 0.807999,1.447001 3.105999,1.447001 2.299,0 3.08,-1.400001 3.112,-1.460001 0.177,-0.328 0.53,-0.541 0.899,-0.533 0.373,0.006 0.716,0.212 0.883,0.546 0.026,0.047 0.807,1.447001 3.106,1.447001 2.299,0 3.08,-1.400001 3.112,-1.460001 0.26,-0.481 0.86,-0.673 1.345,-0.42 0.485,0.251 0.682,0.839 0.438,1.327001 -0.052,0.105 -1.318,2.552999 -4.895,2.552999 z"
     id="path874"
     inkscape:connector-curvature="0" />
  <path
     style="display:inline;fill:#26618d;fill-opacity:1"
     d="m 28.495831,31.88686 c -1.979,0 -3.25,-0.749 -4,-1.437 -0.75,0.688 -2.021,1.437 -3.999999,1.437 -3.577,0 -4.842001,-2.448 -4.895001,-2.553 -0.247,-0.494 -0.047,-1.095 0.447001,-1.342 0.491,-0.244 1.086,-0.049 1.336,0.437 0.046,0.082 0.834,1.458 3.112,1.458 2.297999,0 3.079999,-1.4 3.111999,-1.46 0.177,-0.328 0.503,-0.524 0.899,-0.533 0.373,0.006 0.716,0.212 0.883,0.546 0.026,0.047 0.807,1.447 3.106,1.447 2.299,0 3.08,-1.4 3.112,-1.46 0.26,-0.481 0.859,-0.673 1.345,-0.42 0.485,0.251 0.682,0.839 0.438,1.327 -0.052,0.105 -1.318,2.553 -4.895,2.553 z"
     id="path5164-2"
     inkscape:connector-curvature="0" />
</svg>
