<?xml version="1.0" encoding="UTF-8" standalone="no"?>
<svg xmlns="http://www.w3.org/2000/svg"
     viewBox="0 0 36 36"
     version="1.1">
    <rect style="fill:#55acee;"
          width="36"
          height="36"
          x="0"
          y="0"/>
    <path style="fill:#ffe233"
          d="m 34.474358,16.223188 -8.899,-3.294 -3.323,-10.8909995 c -0.128,-0.42 -0.517,-0.7079999 -0.956,-0.7079999 -0.439,0 -0.828,0.2879999 -0.956,0.7079999 l -3.322,10.8909995 -8.8999999,3.294 c -0.393,0.146 -0.653,0.519 -0.653,0.938 0,0.418 0.26,0.793 0.653,0.938 l 8.8949999,3.293 3.324,11.223 c 0.126,0.424 0.516,0.715 0.959,0.715 0.442,0 0.833,-0.291 0.959,-0.716 l 3.324,-11.223 8.896,-3.293 c 0.391,-0.144 0.652,-0.518 0.652,-0.937 0,-0.418 -0.261,-0.792 -0.653,-0.938 z"/>
    <path style="fill:#fff891"
          d="m 14.474358,27.224188 -2.314,-0.856 -0.9,-3.3 c -0.118,-0.436 -0.513,-0.738 -0.964,-0.738 -0.4509999,0 -0.8459999,0.302 -0.9649999,0.737 l -0.9,3.3 -2.313,0.856 c -0.393,0.145 -0.653,0.52 -0.653,0.938 0,0.418 0.26,0.793 0.653,0.938 l 2.301,0.853 0.907,3.622 c 0.112,0.444 0.511,0.756 0.9699999,0.756 0.459,0 0.858,-0.312 0.97,-0.757 l 0.907,-3.622 2.301,-0.853 c 0.393,-0.144 0.653,-0.519 0.653,-0.937 0,-0.418 -0.26,-0.793 -0.653,-0.937 z m -4.338,-21.6629991 -2.3639999,-0.875 -0.876,-2.3650004 c -0.145,-0.393 -0.519,-0.653 -0.938,-0.653 -0.418,0 -0.792,0.26 -0.938,0.653 l -0.875,2.3650004 -2.365,0.875 c -0.393,0.146 -0.6530001,0.52 -0.6530001,0.938 0,0.418 0.2600001,0.793 0.6530001,0.938 l 2.365,0.8750001 0.875,2.365 c 0.146,0.392999 0.52,0.652999 0.938,0.652999 0.418,0 0.792,-0.26 0.938,-0.652999 l 0.875,-2.365 2.3649999,-0.8750001 c 0.393,-0.146 0.653,-0.52 0.653,-0.938 0,-0.418 -0.26,-0.792 -0.653,-0.938 z"/>
</svg>
