<?xml version="1.0" encoding="UTF-8"?>
<svg version="1.1" viewBox="0 0 36 36" xmlns="http://www.w3.org/2000/svg">
  <rect x="3.662e-8" width="36" height="36" fill="#55acee" style="paint-order:markers stroke fill"/>
  <rect x="3.662e-8" width="36" height="36" fill="#26618d" style="paint-order:markers stroke fill"/>
  <path d="m35.004 28.017s-1.4407-3.5855-2.7947-6.5641c0 0-1.2233-3.6903-2.661-4.6078-1.3406-.85519-3.0427-1.0692-3.2676-1.0945l-2.1624-3.0407-3.254-4.5378-2.9184-1.3656-2.2242-1.0475-.6581-.4556-6.7546-4.6805 4.233 6.3715.96878 1.4577 4.5572 4.0553 1.3021 2.118 2.0169 1.7897 1.4963 2.3782 2.0684 3.2908 3.6266.63199z" fill="#154e71"/>
  <g fill="#104160">
   <path d="m8.2925 35.475 2.6388-1.7385-1.4049-12.014-.09827-5.0696.58957-5.9306.03465-4.6341-1.1642 7.6281-1.5261 4.1375-.24099 7.7359-.06197 1.9818-.84632 3.509.53852 2.0126zm4.6041-24.807 2.5409 9.5582.0427 3.4623 2.328 5.0095c1.9388.29979.32521 1.6308 5.8163.89938 0 0-6.1059-5.452-6.2802-6.0522-.03345-.11524-.17517-2.084-.17517-2.084l-.60711-2.8178-1.0817-3.6683z"/>
   <path d="m1.5227 21.711s1.2733-6.4257 1.8822-7.2214c.60894-.79564 2.3424-4.57 2.3424-4.57s2.4936-3.2878 2.5239-4.4017c.030289-1.1139-.96513-4.8477-.96513-4.8477l-1.0391 3.8823-3.309 3.5245-2.2057 6.5638.2378 6.606z"/>
   <path d="m20.432 4.7728s5.7327 1.4745 6.1259 2.0676c.39321.59314 2.8866 4.1573 2.8866 4.1573s2.3935 2.0017 2.7551 2.0294c.36166.02763-2.0213-2.2424-2.0213-2.2424l-1.0217-4.4334-2.4921-3.2551-5.158.65738-5.7774-1.0195 2.5487 1.4704z"/>
  </g>
  <g fill="#154e71">
   <path d="m30.991 4.7123 1.8255 1.9528.55189 2.8019 1.0613 2.7594.16981-2.8443.16981-3.2264-1.4858-.93396-1.9528-.84906-1.2736-1.4434z"/>
   <path d="m25.514 27.042 4.1179 1.9953 2.8868 2.717 1.316 2.6745-.46698-4.1179-2.4623-3.0142-2.7594-.08491-2.2075-.33962-1.7406-1.1887z"/>
   <path d="m14.434 29.929 3.2264 2.6745 2.1651.63679 4.5.21226-2.9292.93396-4.2453.33962-2.8019-2.3774-.93396-4.8396-1.0189-2.9717 1.783 3.3962z"/>
   <path d="m4.033 21.311-1.4009 2.717-1.2311 1.5708.21226 3.3962 1.0613 1.9528.67925 2.717.76415-3.5236-1.316-2.717 1.783-4.1179-.042453-5.2642z"/>
  </g>
</svg>
